<svg xlink="http://www.w3.org/1999/xlink" viewBox="0 0 5000 5000" xmlns="http://www.w3.org/2000/svg" style="transform: scale(1);"><defs><filter id="goo"><feGaussianBlur in="SourceGraphic" stdDeviation="0" result="blur"></feGaussianBlur><feColorMatrix in="blur" type="matrix" values="1 0 0 0 0 0 1 0 0 0 0 0 1 0 0 0 0 0 19 -9" result="good"></feColorMatrix><feComposite in="SourceGraphic" in2="goo" operator="atop"></feComposite></filter><path d="M219,292C201,277 194,253 201,234C209,212 230,198 250,198C274,200 293,215 299,234C305,257 297,280 281,292C260,305 236,304 219,292z" id="P0"></path><path d="M236,305C211,297 195,276 193,254C193,228 208,206 229,197C254,189 279,197 294,214C309,235 310,261 298,281C283,301 258,311 236,305z" id="P1"></path><path d="M173,270C166,234 181,200 207,182C239,165 276,169 301,188C327,214 336,250 324,279C309,312 276,331 245,330C209,325 181,300 173,270z" id="P2"></path></defs><rect id="RECT" width="5000" height="5000" fill="#009C93"></rect><g id="group" fill="#FFFFFF" filter="" opacity="0.28"><use x="-126" y="725" href="#P0"></use><use x="102" y="835" href="#P0"></use><use x="329" y="1747" href="#P1"></use><use x="180" y="3374" href="#P2"></use><use x="216" y="3732" href="#P1"></use><use x="599" y="4824" href="#P1"></use><use x="1245" y="450" href="#P1"></use><use x="1907" y="878" href="#P2"></use><use x="1543" y="2276" href="#P1"></use><use x="1125" y="2841" href="#P0"></use><use x="1649" y="4181" href="#P0"></use><use x="1099" y="5450" href="#P0"></use><use x="1979" y="414" href="#P2"></use><use x="2806" y="943" href="#P0"></use><use x="2477" y="2011" href="#P0"></use><use x="1999" y="3581" href="#P0"></use><use x="2381" y="4267" href="#P1"></use><use x="2723" y="5069" href="#P1"></use><use x="4131" y="-173" href="#P1"></use><use x="3859" y="763" href="#P1"></use><use x="3453" y="1746" href="#P1"></use><use x="3238" y="3092" href="#P1"></use><use x="3170" y="3720" href="#P1"></use><use x="3373" y="5195" href="#P2"></use><use x="4619" y="71" href="#P2"></use><use x="4889" y="1242" href="#P1"></use><use x="4203" y="2127" href="#P0"></use><use x="4178" y="2787" href="#P2"></use><use x="5005" y="4279" href="#P1"></use><use x="5230" y="5455" href="#P1"></use></g></svg>