<svg xlink="http://www.w3.org/1999/xlink" viewBox="0 0 5000 5000" xmlns="http://www.w3.org/2000/svg" style="transform: scale(1);"><defs><filter id="goo"><feGaussianBlur in="SourceGraphic" stdDeviation="0" result="blur"></feGaussianBlur><feColorMatrix in="blur" type="matrix" values="1 0 0 0 0 0 1 0 0 0 0 0 1 0 0 0 0 0 19 -9" result="good"></feColorMatrix><feComposite in="SourceGraphic" in2="goo" operator="atop"></feComposite></filter><path d="M224,298C202,285 192,261 196,240C202,215 222,198 243,195C268,194 290,207 300,227C309,250 303,275 288,290C268,306 243,308 224,298z" id="P0"></path><path d="M275,197C299,210 311,234 309,257C303,284 284,303 261,308C234,311 210,299 198,278C187,254 191,227 207,210C227,191 254,187 275,197z" id="P1"></path><path d="M231,285C215,275 208,258 211,243C215,225 229,212 245,210C263,209 279,219 286,233C293,250 289,268 277,279C263,291 245,292 231,285z" id="P2"></path></defs><rect id="RECT" width="5000" height="5000" fill="#6A82F7"></rect><g id="group" fill="#FFFFFF" filter="" opacity="0.28"><use x="-79" y="107" href="#P2"></use><use x="481" y="969" href="#P2"></use><use x="-52" y="1760" href="#P2"></use><use x="-222" y="2282" href="#P0"></use><use x="-214" y="3122" href="#P0"></use><use x="55" y="3927" href="#P1"></use><use x="-197" y="4670" href="#P0"></use><use x="90" y="5301" href="#P0"></use><use x="905" y="44" href="#P2"></use><use x="808" y="1059" href="#P1"></use><use x="735" y="1618" href="#P2"></use><use x="850" y="2158" href="#P1"></use><use x="838" y="2819" href="#P0"></use><use x="1091" y="3664" href="#P1"></use><use x="716" y="4547" href="#P0"></use><use x="609" y="4955" href="#P2"></use><use x="1453" y="117" href="#P1"></use><use x="1697" y="756" href="#P1"></use><use x="1921" y="1485" href="#P2"></use><use x="1925" y="2037" href="#P0"></use><use x="1399" y="2779" href="#P0"></use><use x="1588" y="3561" href="#P1"></use><use x="1569" y="4329" href="#P0"></use><use x="1644" y="5298" href="#P0"></use><use x="2394" y="235" href="#P2"></use><use x="2238" y="775" href="#P1"></use><use x="2554" y="1798" href="#P0"></use><use x="2138" y="2159" href="#P1"></use><use x="2533" y="2708" href="#P2"></use><use x="2340" y="3302" href="#P0"></use><use x="2483" y="4172" href="#P2"></use><use x="2662" y="5142" href="#P1"></use><use x="3639" y="273" href="#P0"></use><use x="3172" y="569" href="#P0"></use><use x="3050" y="1310" href="#P2"></use><use x="3484" y="1906" href="#P0"></use><use x="2926" y="2633" href="#P2"></use><use x="3576" y="3989" href="#P2"></use><use x="3531" y="4564" href="#P0"></use><use x="2945" y="5285" href="#P1"></use><use x="4101" y="-122" href="#P2"></use><use x="3784" y="492" href="#P0"></use><use x="4142" y="1844" href="#P2"></use><use x="3706" y="2462" href="#P2"></use><use x="4174" y="3264" href="#P1"></use><use x="3908" y="3903" href="#P1"></use><use x="3737" y="4568" href="#P1"></use><use x="3904" y="5006" href="#P0"></use><use x="4576" y="-187" href="#P0"></use><use x="5069" y="1101" href="#P1"></use><use x="5229" y="1413" href="#P2"></use><use x="4946" y="2392" href="#P2"></use><use x="4660" y="3254" href="#P1"></use><use x="5187" y="3959" href="#P0"></use><use x="4719" y="4441" href="#P1"></use><use x="4976" y="4846" href="#P2"></use></g></svg>