<svg xmlns="http://www.w3.org/2000/svg" version="1.1" xmlns:xlink="http://www.w3.org/1999/xlink" xmlns:svgjs="http://svgjs.com/svgjs" width="512" height="512" x="0" y="0" viewBox="0 0 16.933333 16.933334" style="enable-background:new 0 0 512 512" xml:space="preserve" class=""><g><g id="layer1" transform="translate(0 -280.067)"><path id="path14820" d="m6.0766257 280.59633c-.0667.002-.1302498.0291-.17776.076l-1.05834 1.05885c-.0499.0496-.0785.11666-.0786.18707v1.8526h1.5880202v-3.17449s-.1241603-.005-.2733702 0zm.80254 0v1.58802h3.1750003v-1.58802zm3.7031303 0v3.17449h1.58802v-1.8526c.000529-.0701-.0267-.13713-.076-.18707l-1.05882-1.05885c-.0509-.0502-.11973-.0775-.1912-.076-.14465.002-.262 0-.262 0zm-7.6713702 3.70365c-.1463201-.00079-.26555.11723-.26613.26355v10.31979c0 .87489.71312 1.58801 1.5880201 1.58801h8.4666701c.87489 0 1.58801-.71312 1.58801-1.58801v-10.31979c-.000529-.14612-.1195-.26411-.26562-.26355zm5.5562501 3.17449c.4352499 0 .7927199.35954.7927199.79478 0 .11569-.0265.22505-.0718.32453 1.2387802.20805 1.9979802.93836 2.4179402 1.65829.19005.32581.31631.64995.40101.9276h-7.0796703c.0847-.27766.2109499-.60179.4010099-.9276.4197901-.71964 1.1785003-1.4499 2.4163902-1.65829-.0455-.0995-.0724-.20884-.0724-.32453 0-.43524.3595399-.79478.79478-.79478zm-3.9687501 4.23436h7.9375002a.26460982.26460982 0 0 1 .26356.26355v.26562c0 .58174-.4766 1.05885-1.05834 1.05885h-6.3500002c-.5817399 0-1.0583299-.47711-1.0583299-1.05885v-.26562a.26460982.26460982 0 0 1 .2656099-.26355z" font-variant-ligatures="normal" font-variant-position="normal" font-variant-caps="normal" font-variant-numeric="normal" font-variant-alternates="normal" font-feature-settings="normal" text-indent="0" text-align="start" text-decoration-line="none" text-decoration-style="solid" text-decoration-color="rgb(0,0,0)" text-transform="none" text-orientation="mixed" white-space="normal" shape-padding="0" isolation="auto" mix-blend-mode="normal" solid-color="rgb(0,0,0)" solid-opacity="1" vector-effect="none" fill="#162e47" data-original="#162e47" class=""></path></g></g></svg>