<svg xmlns="http://www.w3.org/2000/svg" version="1.1" xmlns:xlink="http://www.w3.org/1999/xlink" xmlns:svgjs="http://svgjs.com/svgjs" width="512" height="512" x="0" y="0" viewBox="0 0 53 53" style="enable-background:new 0 0 512 512" xml:space="preserve" class=""><g><g id="_x32_9"><path d="m48.0791245 22.817728h-43.1478658c-1.3460644 0-2.4312587 1.0852585-2.4312587 2.4313221 0 1.2834568 1.0016983 2.3373814 2.274775 2.4104328l3.0052223 16.4764996c.2712512 1.4922295 1.5652175 2.5669785 3.0782104 2.5669785h31.2939644c1.5129929 0 2.8069611-1.074749 3.0782127-2.5669785l3.0052223-16.4764996c1.2626305-.0730514 2.2643929-1.126976 2.2643929-2.4104328 0-1.3460636-1.0852585-2.4313221-2.4208755-2.4313221zm-35.4613848 19.7150135c-.4947357 0-.9339333-.352581-1.0256453-.8564873l-1.565218-8.5985069c-.1029205-.5670853.2725887-1.1102238.839674-1.2136536.5732002-.101902 1.110734.273098 1.2136555.8396721l1.565217 8.5985069c.1159773.6389886-.373599 1.2304688-1.0276832 1.2304688zm4.6217737 0c-.5202122 0-.9701099-.3882484-1.0343075-.9176292l-1.043479-8.5985069c-.069293-.5721779.3378057-1.0923901.9099874-1.161684.5721798-.0667458 1.0923901.3378048 1.161684.9099865l1.043478 8.5985069c.074835.6180343-.4053152 1.1693267-1.0373629 1.1693267zm4.6334915 0c-.5472145 0-1.006794-.4264603-1.0404224-.9803009l-.5217381-8.5985031c-.0351563-.5752373.4030228-1.069973.97826-1.10462.5721817-.0351563 1.069973.4030247 1.10462.9782619l.52174 8.5985031c.0365562.5982324-.4381161 1.106659-1.0424595 1.106659zm5.6774788-1.0434799c0 .5762596-.4672203 1.0434799-1.043478 1.0434799-.5762558 0-1.043478-.4672203-1.043478-1.0434799v-8.5985031c0-.5762596.4672222-1.0434799 1.043478-1.0434799.5762577 0 1.043478.4672203 1.043478 1.0434799zm4.6207542.063179c-.0336266.5538406-.493206.9803009-1.0404205.9803009-.6041527 0-1.0790176-.5083008-1.0424595-1.1066589l.5217381-8.5985031c.0351563-.5752373.5375347-1.0139275 1.10462-.9782619.5752392.034647 1.0134182.5293827.9782619 1.10462zm4.6273766.0626717c-.0641975.5293808-.5146065.9176292-1.0343056.9176292-.6326218 0-1.1121368-.5517387-1.037365-1.1693268l1.0434799-8.5985069c.069294-.5721817.5910301-.9772415 1.1616821-.9099865.5721817.069294.9792824.5895061.9099884 1.161684zm4.6136208.061142c-.0917091.5039063-.5309105.8564873-1.0256424.8564873-.6546593 0-1.1435356-.5920525-1.0276833-1.2304688l1.5652161-8.5985069c.1034317-.5665741.6435127-.9410648 1.2136536-.8396721.5670853.1034298.9425964.6465683.8396759 1.2136536z" fill="#162e47" data-original="#162e47" class=""></path><path d="m33.1365051 17.6316719c.1252136-1.5861073-1.0539207-2.9947777-2.6400299-3.1199903l-6.9704266-.5947905c-1.596489-.146102-2.9947777 1.0330334-3.130434 2.6191406l-.3547478 4.1947403h12.8243256z" fill="#162e47" data-original="#162e47" class=""></path><path d="m30.8303967 12.4455509.2713146-3.2243118c.0626068-.7408924-.4904041-1.3878441-1.2312965-1.4504499l-4.2782364-.3651919c-.7408924-.0626063-1.3982887.479959-1.4608936 1.2208514l-.2713146 3.2139311 6.8139439.5843449c.0521601-.162e471.1043204.0104455.1564826.0208262z" fill="#162e47" data-original="#162e47" class=""></path><path d="m42.6947403 17.89254.5112915-3.8295469h-.0103798l-4.7895927-.6261244-.5008507 3.8295479c-.1878166 1.419178-1.1165276 2.6504745-2.4208755 3.2452641-.1461029.0626068-.2817612.1356583-.4174156.2190914h8.2852173c-.5530091-.8243256-.7930528-1.826088-.6573945-2.8382321z" fill="#162e47" data-original="#162e47" class=""></path><path d="m7.1643171 14.2508116c.5530744.3547478 1.1374197.6156168 1.7113199.81388-1.4400053.782609-2.2852201 2.2852211-1.7843709 5.6660805h10.5495491c-.0626049-.3339214-.1252117-.6573963-.1878185-.9704285-.8660412-4.173913-2.3373804-5.4364805-4.1321325-5.6139174.4695139-.4173536.9182653-.8764868 1.2939024-1.450387 1.3252382-2.0347948 1.3669538-4.4870071 1.3147926-5.4991503-.0104446-.2399797-.260869-.3965268-.4800224-.3130307-.7617188.2921405-2.3373814.9912534-3.6312838 2.306046-.6991768-1.1999617-1.565218-2.0869565-2.0452404-2.5147548-.1773734-.1669921-.4591326-.1043858-.5634551.1147676-.2713146.5843453-.7200021 1.7425909-.8765497 3.130435-1.7008748-.6991129-3.4434657-.7095576-4.2574091-.6782866-.2399797.0208903-.3964631.2608691-.3130307.4800225.3548107.9496011 1.3669538 3.1825962 3.4017491 4.5287237z" fill="#162e47" data-original="#162e47" class=""></path><path d="m38.6800499 11.3646879 4.790802.6312838c.5617371.0740061 1.0771713-.3213739 1.1511765-.88311l.3924484-3.024456c.0740738-.5617361-.321373-1.0771699-.8831062-1.1511765l-4.7908058-.6312838c-.5617332-.0740066-1.0771675.3213739-1.1511765.8831735l-.3924484 3.0243926c-.07407.5617361.3213729 1.0771694.88311 1.1511764z" fill="#162e47" data-original="#162e47" class=""></path></g></g></svg>