<svg xmlns="http://www.w3.org/2000/svg" version="1.1" xmlns:xlink="http://www.w3.org/1999/xlink" xmlns:svgjs="http://svgjs.com/svgjs" width="512" height="512" x="0" y="0" viewBox="0 0 512 512" style="enable-background:new 0 0 512 512" xml:space="preserve" class=""><g><g><g><path d="m15.5 227c0 97.78 61.88 179.84 147.64 211.4l-36.96 73.6h228.64l-36.96-73.6c85.89-31.61 147.64-113.76 147.64-211.4zm270 120h-30v30h-30v-30h-30v-30h30v-30h30v30h30z" fill="#162e47" data-original="#000000" class=""></path></g><path d="m225.5 107c-41.355 0-75 33.645-75 75v-15c0-49.626-40.374-90-90-90h-30v30c0 49.626 40.374 90 90 90h45c41.355 0 75-33.645 75-75v-15z" fill="#162e47" data-original="#000000" class=""></path><path d="m496.5 60c0 31.23-23.98 56.96-54.5 59.75l-44.48 77.25h-134.49l114.9-124.1c-.95-4.25-1.43-8.56-1.43-12.9 0-33.08 26.92-60 60-60s60 26.92 60 60z" fill="#162e47" data-original="#000000" class=""></path></g></g></svg>