<svg xmlns="http://www.w3.org/2000/svg" version="1.1" xmlns:xlink="http://www.w3.org/1999/xlink" xmlns:svgjs="http://svgjs.com/svgjs" width="512" height="512" x="0" y="0" viewBox="0 0 32 32" style="enable-background:new 0 0 512 512" xml:space="preserve" class=""><g><path d="M26.16 26.247c0 1.343-1.092 2.435-2.434 2.435s-2.434-1.092-2.434-2.435c0-1.342 1.092-2.434 2.434-2.434s2.434 1.092 2.434 2.434zM8.445 23.813a2.437 2.437 0 0 0-2.434 2.434c0 1.343 1.092 2.435 2.434 2.435s2.434-1.092 2.434-2.435a2.437 2.437 0 0 0-2.434-2.434zm21.605-4.657v4.839c-.128 1.827-1.243 2.708-2.486 3.003a3.88 3.88 0 0 0 .076-.751c0-2.158-1.756-3.913-3.913-3.913s-3.913 1.755-3.913 3.913c0 .302.042.593.106.875l-7.673.014c.067-.287.111-.582.111-.889 0-2.158-1.756-3.913-3.913-3.913s-3.913 1.755-3.913 3.913c0 .291.037.573.098.847-.807-.112-1.469-.398-1.941-.895a2.694 2.694 0 0 1-.736-1.884l.012-2.929c.4-2.538 2.443-3.36 3.468-3.441h.768l3.7-4.308c.759-.882 2.075-1.578 3.31-1.811V10.9h-1.462a1 1 0 1 1 0-2h.919V6.18a1 1 0 0 1 1-1h5.215V3.506a1 1 0 0 1 1-1h4.861a1 1 0 0 1 1 1v5.396h.653a1 1 0 1 1 0 2h-1.975v.877c1.359.193 2.77 1.153 3.362 2.35l1.994 4.03c.324.654.272.997.272.997zm-14.841-7.419h7.212v-.836h-7.212zm.618 8.653a1 1 0 0 0-1-1h-2.171a1 1 0 1 0 0 2h2.171a1 1 0 0 0 1-1zm1.256-6.653h-3.044c-.83 0-2.081.574-2.623 1.204l-2.58 3.004 8.247-.001zm10.356 4.205-1.448-2.927c-.331-.669-1.313-1.278-2.059-1.278h-4.85v4.206z" fill="#162e47" data-original="#000000" class=""></path></g></svg>