<svg xmlns="http://www.w3.org/2000/svg" version="1.1" xmlns:xlink="http://www.w3.org/1999/xlink" xmlns:svgjs="http://svgjs.com/svgjs" width="512" height="512" x="0" y="0" viewBox="0 0 120 120" style="enable-background:new 0 0 512 512" xml:space="preserve" class=""><g><path d="m79 90c1.1046 0 2-.8954 2-2 0-17.6667 0-35.3333 0-53 0-1.1046-.8954-2-2-2h-64c-2.7614 0-5 2.2386-5 5v13.9548c0 .575.4858 1.0257 1.0595 1.0659 4.3488.3043 7.9405 4.01 7.9405 8.4793 0 4.4692-3.5917 8.175-7.9405 8.4793-.5737.0402-1.0595.4909-1.0595 1.0659v13.9548c0 2.7614 2.2386 5 5 5z" fill="#fabc3c" data-original="#ffba33" class=""></path><path d="m83 90c-1.1045 0-2-.8819-2-1.9864 0-4.0217 0-16.1853 0-52.9746 0-1.1046.8954-2.039 2-2.039h22.61c2.424 0 4.39 2.2386 4.39 5v13.9479c0 .5776-.491 1.0281-1.066 1.0834-3.802.3657-7.034 3.9608-7.034 8.4687s3.232 8.103 7.034 8.4687c.575.0553 1.066.5058 1.066 1.0834v13.9479c0 2.7614-1.966 5-4.39 5z" fill="#162e47" data-original="#027ef1" class=""></path><path d="m43 74h3v-15.5079l-11.7353 4.8559c-1.0206.4224-2.1904-.0627-2.6127-1.0833s.0627-2.1904 1.0833-2.6127l13.2647-5.4889v-7.1631c0-1.1046.8954-2 2-2s2 .8954 2 2v7.1631l13.2647 5.4889c1.0207.4223 1.5057 1.5921 1.0834 2.6127-.4224 1.0206-1.5921 1.5057-2.6128 1.0833l-11.7353-4.856v15.508h3c1.1046 0 2 .8954 2 2s-.8954 2-2 2h-10c-1.1046 0-2-.8954-2-2s.8954-2 2-2z" fill="#162e47" data-original="#0048d4" class=""></path></g></svg>