<svg xmlns="http://www.w3.org/2000/svg" version="1.1" xmlns:xlink="http://www.w3.org/1999/xlink" xmlns:svgjs="http://svgjs.com/svgjs" width="512" height="512" x="0" y="0" viewBox="0 0 503.062 503.062" style="enable-background:new 0 0 512 512" xml:space="preserve" class=""><g><g><g id="Page-1_31_"><g id="_x30_32---Home-Power"><path id="Shape_218_" d="m11.727 98.807h107.789c4.961 0 8.982-4.022 8.982-8.982 0-4.961-4.022-8.982-8.982-8.982h-107.789c-4.961 0-8.982 4.022-8.982 8.982s4.021 8.982 8.982 8.982z" fill="#162e47" data-original="#162e47" class=""></path><path id="Shape_217_" d="m20.709 8.982v53.895h17.965v-53.895c0-4.96-4.021-8.982-8.982-8.982s-8.983 4.022-8.983 8.982z" fill="#162e47" data-original="#162e47" class=""></path><path id="Shape_216_" d="m433.902 152.702h-17.965c-4.961 0-8.982 4.022-8.982 8.982v20.66l35.93 27.944v-48.604c0-4.961-4.022-8.982-8.983-8.982z" fill="#162e47" data-original="#162e47" class=""></path><path id="Shape_215_" d="m92.569 8.982v53.895h17.965v-53.895c0-4.961-4.022-8.982-8.982-8.982s-8.983 4.022-8.983 8.982z" fill="#162e47" data-original="#162e47" class=""></path><path id="Shape_214_" d="m65.622 206.596c24.792-.03 44.883-20.12 44.912-44.912v-44.912h-89.825v44.912c.03 24.792 20.121 44.883 44.913 44.912z" fill="#162e47" data-original="#162e47" class=""></path><path id="Shape_213_" d="m146.464 467.088h8.982v-17.965h-8.982c-39.669-.045-71.815-32.191-71.86-71.86v-153.42c-2.973.453-5.975.693-8.982.719-3.007-.025-6.009-.265-8.982-.719v153.42c.054 49.586 40.238 89.77 89.824 89.825z" fill="#162e47" data-original="#162e47" class=""></path><path id="Shape_212_" d="m460.85 299.879-143.72-111.777-143.719 111.777v198.512c0 2.58 2.091 4.671 4.671 4.671h278.097c2.58 0 4.671-2.091 4.671-4.671zm-84.947 85.199-70.063 77.034c-4.387 4.885-11.445 6.341-17.408 3.593-6.094-2.794-9.666-9.222-8.821-15.872l8.776-72.569h-18.944c-6.024.028-11.48-3.553-13.851-9.09-2.483-5.606-1.427-12.149 2.695-16.689l70.063-77.034c4.393-4.881 11.451-6.337 17.417-3.593 6.092 2.794 9.662 9.224 8.812 15.872l-8.758 72.569h18.917c6.025-.03 11.482 3.551 13.851 9.09 2.49 5.603 1.436 12.149-2.686 16.689z" fill="#162e47" data-original="#162e47" class=""></path><path id="Shape_211_" d="m317.13 167.738c1.998.001 3.939.668 5.515 1.895l158.361 123.194c3.339 2.69 7.869 3.37 11.85 1.779 3.981-1.592 6.794-5.208 7.358-9.458s-1.21-8.475-4.639-11.049l-171.16-133.155c-4.285-3.333-10.285-3.333-14.57 0l-171.16 133.129c-5.179 4.023-6.116 11.483-2.093 16.662s11.483 6.116 16.662 2.093l158.361-123.167c1.573-1.238 3.514-1.914 5.515-1.923z" fill="#162e47" data-original="#162e47" class=""></path><path id="Shape_210_" d="m328.96 374.236c-1.705-1.925-2.503-4.489-2.192-7.042l8.982-74.15-60.29 66.255h23.049c2.571.002 5.017 1.105 6.721 3.03s2.501 4.488 2.19 7.04l-8.982 74.15 60.29-66.255h-23.049c-2.569-.002-5.015-1.104-6.719-3.028z" fill="#162e47" data-original="#162e47" class=""></path></g></g></g></g></svg>